<mxfile host="65bd71144e">
    <diagram id="LwZJgrHURrU_VhMSM77W" name="Página-1">
        <mxGraphModel dx="555" dy="574" grid="1" gridSize="10" guides="1" tooltips="1" connect="1" arrows="1" fold="1" page="1" pageScale="1" pageWidth="827" pageHeight="1169" math="0" shadow="0">
            <root>
                <mxCell id="0"/>
                <mxCell id="1" parent="0"/>
                <mxCell id="2" value="Carregar os tipos de cadastro (Aluno, Professor, Verificando o chaveamento na teabela instituicao&lt;br&gt;" style="whiteSpace=wrap;html=1;aspect=fixed;" vertex="1" parent="1">
                    <mxGeometry x="30" y="120" width="140" height="140" as="geometry"/>
                </mxCell>
                <mxCell id="3" value="Carregar os campos obrigatórios com referencia do formulario idm, os campos são todos os campos obrigatórios por ordem, devemos informar os campos de acordo com sua etapa, tudo na resposta, ex? etapa1 =&amp;gt; campos, etapa2 =&amp;gt; campos&amp;nbsp;" style="whiteSpace=wrap;html=1;aspect=fixed;" vertex="1" parent="1">
                    <mxGeometry x="200" y="120" width="180" height="180" as="geometry"/>
                </mxCell>
                <mxCell id="4" value="Carregar os campos obrigatórios com referencia do formulario idm, os campos são todos os campos obrigatórios por ordem&amp;nbsp;" style="whiteSpace=wrap;html=1;aspect=fixed;" vertex="1" parent="1">
                    <mxGeometry x="440" y="120" width="140" height="140" as="geometry"/>
                </mxCell>
            </root>
        </mxGraphModel>
    </diagram>
</mxfile>